<mxfile host="app.diagrams.net" agent="Mozilla/5.0 (Windows NT 10.0; Win64; x64) AppleWebKit/537.36 (KHTML, like Gecko) Chrome/135.0.0.0 Safari/537.36 OPR/120.0.0.0" version="28.1.2">
  <diagram name="Page-1" id="nrMDSHrh1mtwg5gxZ5Ba">
    <mxGraphModel dx="1900" dy="833" grid="1" gridSize="10" guides="1" tooltips="1" connect="1" arrows="1" fold="1" page="1" pageScale="1" pageWidth="827" pageHeight="1169" math="0" shadow="0">
      <root>
        <mxCell id="0" />
        <mxCell id="1" parent="0" />
        <mxCell id="iC1rTaQaeNt96tmryydn-1" value="&#xa;  &#xa;    &#xa;      &#xa;        &#xa;        &#xa;&#xa;        &#xa;        &#xa;          &#xa;        &#xa;&#xa;        &#xa;        &#xa;          &#xa;        &#xa;&#xa;        &#xa;          &#xa;        &#xa;&#xa;        &#xa;          &#xa;        &#xa;&#xa;        &#xa;        &#xa;          &#xa;        &#xa;&#xa;        &#xa;        &#xa;          &#xa;        &#xa;&#xa;        &#xa;          &#xa;        &#xa;&#xa;        &#xa;        &#xa;        &#xa;          &#xa;            &#xa;          &#xa;        &#xa;&#xa;        &#xa;          &#xa;            &#xa;          &#xa;        &#xa;&#xa;        &#xa;          &#xa;            &#xa;          &#xa;        &#xa;&#xa;        &#xa;        &#xa;          &#xa;            &#xa;          &#xa;        &#xa;&#xa;        &#xa;          &#xa;            &#xa;          &#xa;        &#xa;&#xa;        &#xa;        &#xa;        &#xa;          &#xa;            &#xa;          &#xa;        &#xa;&#xa;        &#xa;        &#xa;          &#xa;            &#xa;          &#xa;        &#xa;&#xa;        &#xa;        &#xa;          &#xa;            &#xa;          &#xa;        &#xa;      &#xa;    &#xa;  &#xa;" style="text;whiteSpace=wrap;html=1;" vertex="1" parent="1">
          <mxGeometry x="-270" y="370" width="30" height="1410" as="geometry" />
        </mxCell>
        <mxCell id="iC1rTaQaeNt96tmryydn-2" value="Orchestrator&lt;br&gt;(RxJS + NodeJS)" style="rounded=1;whiteSpace=wrap;html=1;fontSize=12;fontColor=#000000;strokeColor=#000000;fillColor=#FFFFFF;" vertex="1" parent="1">
          <mxGeometry x="-190" y="290" width="140" height="70" as="geometry" />
        </mxCell>
        <mxCell id="iC1rTaQaeNt96tmryydn-3" value="App&lt;br&gt;(AppMessage)" style="rounded=1;whiteSpace=wrap;html=1;fontSize=11;fontColor=#000000;strokeColor=#0000FF;fillColor=#EBF5FB;" vertex="1" parent="1">
          <mxGeometry x="-550" y="300" width="120" height="50" as="geometry" />
        </mxCell>
        <mxCell id="iC1rTaQaeNt96tmryydn-4" value="Sys&lt;br&gt;(SysMessage)" style="rounded=1;whiteSpace=wrap;html=1;fontSize=11;fontColor=#000000;strokeColor=#00A200;fillColor=#E6FFEF;" vertex="1" parent="1">
          <mxGeometry x="-180" y="110" width="120" height="50" as="geometry" />
        </mxCell>
        <mxCell id="iC1rTaQaeNt96tmryydn-5" value="UI&lt;br&gt;(UIMessage)" style="rounded=1;whiteSpace=wrap;html=1;fontSize=11;fontColor=#000000;strokeColor=#A2A2A2;fillColor=#F3F3F3;" vertex="1" parent="1">
          <mxGeometry x="160" y="300" width="120" height="50" as="geometry" />
        </mxCell>
        <mxCell id="iC1rTaQaeNt96tmryydn-6" value="Launcher&lt;br&gt;(start Runtimes)" style="rounded=1;whiteSpace=wrap;html=1;fontSize=12;fontColor=#000000;strokeColor=#000000;fillColor=#FFFAE3;" vertex="1" parent="1">
          <mxGeometry x="-180" y="470" width="140" height="70" as="geometry" />
        </mxCell>
        <mxCell id="iC1rTaQaeNt96tmryydn-7" value="Runtime1&lt;br&gt;(Client)" style="rounded=1;whiteSpace=wrap;html=1;fontSize=12;fontColor=#000000;strokeColor=#000000;fillColor=#E5F5E0;" vertex="1" parent="1">
          <mxGeometry x="-290" y="700" width="140" height="70" as="geometry" />
        </mxCell>
        <mxCell id="iC1rTaQaeNt96tmryydn-8" value="Runtime2&lt;br&gt;(Client)" style="rounded=1;whiteSpace=wrap;html=1;fontSize=12;fontColor=#000000;strokeColor=#000000;fillColor=#E5F5E0;" vertex="1" parent="1">
          <mxGeometry x="-90" y="700" width="140" height="70" as="geometry" />
        </mxCell>
        <mxCell id="iC1rTaQaeNt96tmryydn-9" style="edgeStyle=orthogonalEdgeStyle;elbow=horizontal;strokeColor=#000000;dashed=1;" edge="1" parent="1" source="iC1rTaQaeNt96tmryydn-2" target="iC1rTaQaeNt96tmryydn-3">
          <mxGeometry relative="1" as="geometry">
            <mxPoint x="-350" y="360" as="targetPoint" />
          </mxGeometry>
        </mxCell>
        <mxCell id="iC1rTaQaeNt96tmryydn-10" style="edgeStyle=orthogonalEdgeStyle;elbow=horizontal;strokeColor=#000000;dashed=1;" edge="1" parent="1" source="iC1rTaQaeNt96tmryydn-2" target="iC1rTaQaeNt96tmryydn-4">
          <mxGeometry relative="1" as="geometry">
            <mxPoint x="-190" y="360" as="targetPoint" />
          </mxGeometry>
        </mxCell>
        <mxCell id="iC1rTaQaeNt96tmryydn-11" style="edgeStyle=orthogonalEdgeStyle;elbow=horizontal;strokeColor=#000000;dashed=1;" edge="1" parent="1" source="iC1rTaQaeNt96tmryydn-2" target="iC1rTaQaeNt96tmryydn-5">
          <mxGeometry relative="1" as="geometry">
            <mxPoint x="-30" y="360" as="targetPoint" />
          </mxGeometry>
        </mxCell>
        <mxCell id="iC1rTaQaeNt96tmryydn-12" style="edgeStyle=orthogonalEdgeStyle;elbow=horizontal;strokeColor=#000000;" edge="1" parent="1" source="iC1rTaQaeNt96tmryydn-6" target="iC1rTaQaeNt96tmryydn-7">
          <mxGeometry relative="1" as="geometry">
            <mxPoint x="-140" y="540" as="targetPoint" />
          </mxGeometry>
        </mxCell>
        <mxCell id="iC1rTaQaeNt96tmryydn-13" style="edgeStyle=orthogonalEdgeStyle;elbow=horizontal;strokeColor=#000000;" edge="1" parent="1" source="iC1rTaQaeNt96tmryydn-6" target="iC1rTaQaeNt96tmryydn-8">
          <mxGeometry relative="1" as="geometry">
            <mxPoint x="-40" y="540" as="targetPoint" />
          </mxGeometry>
        </mxCell>
      </root>
    </mxGraphModel>
  </diagram>
</mxfile>
